<?xml version="1.0" encoding="UTF-8"?>
<svg width="20px" height="21px" viewBox="0 0 20 21" version="1.1" xmlns="http://www.w3.org/2000/svg" xmlns:xlink="http://www.w3.org/1999/xlink">
    <title>5C518F22-CEAF-48A1-918E-C075D66B8301</title>
    <defs>
        <polygon id="path-1" points="0 0 1600 0 1600 1249.02683 0 1249.02683"></polygon>
    </defs>
    <g id="✅-Radar-covid-QR" stroke="none" stroke-width="1" fill="none" fill-rule="evenodd">
        <g id="3.-Radar-covid-subir-código-QR--privado--" transform="translate(-651.000000, -1163.000000)">
            <rect fill="#FAF9F7" x="0" y="0" width="1440" height="1684"></rect>
            <g id="Group-3" opacity="0.300292969" transform="translate(-80.000000, 285.000000)">
                <mask id="mask-2" fill="white">
                    <use xlink:href="#path-1"></use>
                </mask>
                <g id="Clip-2"></g>
                <path d="M1595.44798,648.028153 C1548.78967,1023.70757 1206.59941,1290.40989 831.15789,1243.72269 C455.705389,1197.03 -43.6182064,825.681313 3.04559959,450.007396 C49.7039131,74.3224866 582.800548,230.173633 981.683816,38.0059489 C1322.56138,-126.220864 1642.10629,272.354236 1595.44798,648.028153" id="Fill-1" fill="#EEEEEE" mask="url(#mask-2)"></path>
            </g>
            <g id="Group-15" transform="translate(635.000000, 1102.000000)">
                <path d="M8,0 L631,0 C635.418278,-1.69980292e-15 639,3.581722 639,8 L639,170 C639,174.418278 635.418278,178 631,178 L8,178 C3.581722,178 -3.47095419e-16,174.418278 0,170 L0,8 C-1.42926142e-15,3.581722 3.581722,-7.65539184e-17 8,0 Z" id="Rectangle" fill="#EAE8F0"></path>
                <g id="Group-17" transform="translate(16.000000, 61.826816)" fill="#65498D" fill-rule="nonzero">
                    <g id="03_ico-/-20px-/-note-copy-2">
                        <path d="M14,1.49162011 C14.2454599,1.49162011 14.4496084,1.66750714 14.4919443,1.89945328 L14.5,1.98882682 L14.5,3.47962011 L16,3.48044693 C17.3254834,3.48044693 18.4100387,4.50622009 18.4946823,5.80302306 L18.5,5.96648045 L18.5,15.9106145 C18.5,17.2836129 17.3807119,18.396648 16,18.396648 L16,18.396648 L4,18.396648 C2.61928813,18.396648 1.5,17.2836129 1.5,15.9106145 L1.5,15.9106145 L1.5,5.96648045 C1.5,4.59348205 2.61928813,3.48044693 4,3.48044693 L4,3.48044693 L5.5,3.47962011 L5.5,1.98882682 C5.5,1.71422714 5.72385763,1.49162011 6,1.49162011 C6.24545989,1.49162011 6.44960837,1.66750714 6.49194433,1.89945328 L6.5,1.98882682 L6.5,3.47962011 L13.5,3.47962011 L13.5,1.98882682 C13.5,1.71422714 13.7238576,1.49162011 14,1.49162011 Z M17.5,9.45162011 L2.5,9.45162011 L2.5,15.9106145 C2.5,16.6859548 3.09488808,17.3231277 3.85553999,17.3954064 L4,17.4022346 L16,17.4022346 C16.8284271,17.4022346 17.5,16.7344136 17.5,15.9106145 L17.5,15.9106145 L17.5,9.45162011 Z M5.5,4.47462011 L4,4.47486034 C3.17157288,4.47486034 2.5,5.14268141 2.5,5.96648045 L2.5,5.96648045 L2.5,8.45162011 L17.5,8.45162011 L17.5,5.96648045 C17.5,5.19114017 16.9051119,4.55396724 16.14446,4.48168855 L16,4.47486034 L14.5,4.47462011 L14.5,5.96648045 C14.5,6.24108013 14.2761424,6.46368715 14,6.46368715 C13.7545401,6.46368715 13.5503916,6.28780012 13.5080557,6.05585398 L13.5,5.96648045 L13.5,4.47462011 L6.5,4.47462011 L6.5,5.96648045 C6.5,6.24108013 6.27614237,6.46368715 6,6.46368715 C5.75454011,6.46368715 5.55039163,6.28780012 5.50805567,6.05585398 L5.5,5.96648045 L5.5,4.47462011 Z" id="Combined-Shape"></path>
                    </g>
                </g>
            </g>
        </g>
    </g>
</svg>