<?xml version="1.0" encoding="UTF-8"?>
<svg width="12px" height="12px" viewBox="0 0 12 12" version="1.1" xmlns="http://www.w3.org/2000/svg" xmlns:xlink="http://www.w3.org/1999/xlink">
    <title>457B0B28-F9B5-45DC-AB92-2ADE1F7887F8</title>
    <g id="✅-Radar-covid-QR" stroke="none" stroke-width="1" fill="none" fill-rule="evenodd">
        <g id="3.-Radar-covid-subir-código-QR-privado_notificación" transform="translate(-1410.000000, -17.000000)" fill="#FFFFFF">
            <g id="03_ico-/-20px-/-close" transform="translate(1410.000000, 17.000000)">
                <path d="M0.146276146,0.146617156 C0.341444101,-0.0487391344 0.658026554,-0.0488918099 0.853382845,0.146276146 L0.853382845,0.146276146 L6.00033209,5.28826344 L11.1480014,0.146252252 C11.3433708,-0.048902494 11.6599533,-0.0487284121 11.855108,0.146641075 C12.0502628,0.342010562 12.0500887,0.658593003 11.8547192,0.853747749 L11.8547192,0.853747749 L6.705,5.997 L11.8547431,11.1412817 C12.0283932,11.3147644 12.0478082,11.5841794 11.9129062,11.7791126 L11.8550841,11.8483884 C11.6599162,12.0437447 11.3433337,12.0438974 11.1479774,11.8487294 L11.1479774,11.8487294 L6.00102818,6.70674215 L0.853358926,11.8487533 C0.657989439,12.0439081 0.341406998,12.043734 0.146252252,11.8483645 C-0.048902494,11.652995 -0.0487284121,11.3364126 0.146641075,11.1412578 L0.146641075,11.1412578 L5.295,5.997 L0.146617156,0.853723855 C-0.02703288,0.680241228 -0.046447961,0.410826158 0.0884540974,0.215892937 Z" id="close"></path>
            </g>
        </g>
    </g>
</svg>