<?xml version="1.0" encoding="UTF-8"?>
<svg width="20px" height="21px" viewBox="0 0 20 21" version="1.1" xmlns="http://www.w3.org/2000/svg" xmlns:xlink="http://www.w3.org/1999/xlink">
    <title>98AA99DE-E104-429D-BC72-9174FEB2676C</title>
    <g id="ðŸ—-Radar-covid-QR" stroke="none" stroke-width="1" fill="none" fill-rule="evenodd">
        <g id="2" transform="translate(-478.000000, -1516.000000)">
            <rect fill="#FAF9F7" x="0" y="0" width="768" height="2431"></rect>
            <g id="Group-2" transform="translate(65.000000, 1205.063830)">
                <g id="Group-7" transform="translate(413.000000, 330.000000)"></g>
                <path d="M336,19 L631,19 C635.418278,19 639,22.581722 639,27 L639,663 C639,667.418278 635.418278,671 631,671 L336,671 C331.581722,671 328,667.418278 328,663 L328,27 C328,22.581722 331.581722,19 336,19 Z" id="Rectangle-Copy-2" stroke="#979797"></path>
                <g id="Group-19" transform="translate(413.000000, 309.000000)" fill="#65498D">
                    <g id="03_ico-/-20px-/-note-copy" transform="translate(0.000000, 2.000000)">
                        <path d="M17.5,18 C17.7761424,18 18,18.2238576 18,18.5 C18,18.7761424 17.7761424,19 17.5,19 L2.5,19 C2.22385763,19 2,18.7761424 2,18.5 C2,18.2238576 2.22385763,18 2.5,18 L17.5,18 Z M10,2 C10.2761424,2 10.5,2.22385763 10.5,2.5 L10.5,14.287 L15.6466249,9.14626845 C15.8419854,8.95110475 16.1585678,8.95126432 16.3537316,9.14662486 C16.5488953,9.3419854 16.5487357,9.65856785 16.3533751,9.85373155 L10.3924363,15.8098615 C10.3008629,15.9256803 10.1591106,16 10,16 C9.84351932,16 9.70382786,15.9281168 9.61214551,15.8155704 L3.64656284,9.85366958 C3.45123652,9.65847163 3.45113246,9.34188916 3.64633042,9.14656284 C3.84152837,8.95123652 4.15811084,8.95113246 4.35343716,9.14633042 L9.5,14.289 L9.5,2.5 C9.5,2.22385763 9.72385763,2 10,2 Z" id="download"></path>
                    </g>
                </g>
            </g>
        </g>
    </g>
</svg>