<?xml version="1.0" encoding="UTF-8"?>
<svg width="20px" height="20px" viewBox="0 0 20 20" version="1.1" xmlns="http://www.w3.org/2000/svg" xmlns:xlink="http://www.w3.org/1999/xlink">
    <title>0202B107-F42E-4A61-A75D-6A7E799F9F5A</title>
    <defs>
        <path d="M8,0 L335,0 C339.418278,-8.11624501e-16 343,3.581722 343,8 L343,472 C343,476.418278 339.418278,480 335,480 L8,480 C3.581722,480 5.41083001e-16,476.418278 0,472 L0,8 C-5.41083001e-16,3.581722 3.581722,8.11624501e-16 8,0 Z" id="path-1"></path>
        <filter x="-3.8%" y="-2.3%" width="107.6%" height="105.4%" filterUnits="objectBoundingBox" id="filter-2">
            <feOffset dx="0" dy="2" in="SourceAlpha" result="shadowOffsetOuter1"></feOffset>
            <feGaussianBlur stdDeviation="4" in="shadowOffsetOuter1" result="shadowBlurOuter1"></feGaussianBlur>
            <feColorMatrix values="0 0 0 0 0   0 0 0 0 0   0 0 0 0 0  0 0 0 0.182719624 0" type="matrix" in="shadowBlurOuter1"></feColorMatrix>
        </filter>
    </defs>
    <g id="✅-Radar-covid-QR" stroke="none" stroke-width="1" fill="none" fill-rule="evenodd">
        <g id="2-M_Radar-covid-generar-QR-publico-y-privado2" transform="translate(-323.000000, -476.000000)">
            <rect fill="#FAF9F7" x="0" y="0" width="375" height="3037"></rect>
            <g id="Rectangle" transform="translate(16.000000, 454.000000)">
                <use fill="black" fill-opacity="0" filter="url(#filter-2)" xlink:href="#path-1"></use>
                <use fill="#FFFFFF" fill-rule="evenodd" xlink:href="#path-1"></use>
            </g>
            <g id="Icon/dropdown" transform="translate(333.000000, 486.000000) scale(1, -1) translate(-333.000000, -486.000000) translate(323.000000, 476.000000)" fill="#65498D">
                <path d="M12.7601063,10.0003361 L7.16213034,4.86857058 C6.95857605,4.6819687 6.94483342,4.36568463 7.1314353,4.16213034 C7.31803719,3.95857605 7.63432126,3.94483342 7.83787554,4.1314353 L13.8378755,9.6317435 C14.0540355,9.82990126 14.054047,10.1706837 13.8379004,10.368856 L7.83790037,15.8699081 C7.63435865,16.0565237 7.31807366,16.0428024 7.13145806,15.8392606 C6.94484247,15.6357189 6.9585638,15.3194339 7.16210551,15.1328183 L12.7601063,10.0003361 Z" id="carousel-arrow-right" transform="translate(10.500001, 10.000683) rotate(90.000000) translate(-10.500001, -10.000683) "></path>
            </g>
        </g>
    </g>
</svg>
