<?xml version="1.0" encoding="UTF-8"?>
<svg width="18px" height="19px" viewBox="0 0 18 19" version="1.1" xmlns="http://www.w3.org/2000/svg" xmlns:xlink="http://www.w3.org/1999/xlink">
    <title>D9DD8289-3CCC-4683-8E20-A47B6442DAF4</title>
    <g id="ðŸ—-Radar-covid-QR" stroke="none" stroke-width="1" fill="none" fill-rule="evenodd">
        <g id="2" transform="translate(-269.000000, -1612.000000)" fill-rule="nonzero">
            <g id="Group-2" transform="translate(65.000000, 1205.063830)">
                <g id="Group-22" transform="translate(213.000000, 416.000000) scale(-1, -1) translate(-213.000000, -416.000000) translate(204.000000, 407.000000)">
                    <path d="M8.32140317,16.2363082 L1.88240317,15.0604082 C0.161403173,14.7397082 -0.596596827,12.6017082 0.539403173,11.2476082 L4.77440317,6.04520818 L9.00940317,0.842808183 C10.1464032,-0.546891817 12.2804032,-0.154991817 12.8664032,1.55540818 L15.1044032,7.93370818 L17.3424032,14.3121082 C17.9274032,16.0225082 16.5154032,17.7328082 14.7944032,17.4122082 L8.32140317,16.2363082 Z" id="Path" fill="#FFFFFF"></path>
                    <path d="M9.71740317,13.1830082 C9.53540317,11.1384082 10.6644032,9.16680818 10.8464032,7.12220818 C10.9554032,5.91740818 9.09840317,5.58880818 8.98940317,6.79360818 C8.80740317,9.02080818 7.64240317,11.1019082 7.86040317,13.3655082 C7.97040317,14.5704082 9.82740317,14.3878082 9.71740317,13.1830082 Z" id="Path" fill="#70509C"></path>
                    <path d="M11.3924032,4.01890818 C11.3924032,3.94580818 11.3924032,3.83630818 11.3924032,3.76330818 C11.3924032,3.65380818 11.3564032,3.50770818 11.2834032,3.43470818 C11.2464032,3.32520818 11.1734032,3.21560818 11.0644032,3.14260818 C10.9554032,3.06960818 10.8464032,2.99660818 10.7374032,2.96010818 C10.6274032,2.92350818 10.4824032,2.88700818 10.3724032,2.92350818 C10.1184032,2.96010818 9.89940317,3.06960818 9.75340317,3.25210818 C9.71740317,3.32520818 9.68140317,3.39820818 9.60840317,3.47120818 C9.53540317,3.61720818 9.49940317,3.79980818 9.53540317,3.98230818 C9.53540317,4.05540818 9.53540317,4.16490818 9.53540317,4.23790818 C9.53540317,4.34750818 9.57140317,4.49350818 9.64440317,4.56650818 C9.68140317,4.67610818 9.75340317,4.78560818 9.86340317,4.85860818 C9.97240317,4.93160818 10.0814032,5.00460818 10.1904032,5.04120818 C10.3004032,5.07770818 10.4454032,5.11420818 10.5554032,5.07770818 C10.8094032,5.04120818 11.0284032,4.93160818 11.1734032,4.74910818 C11.2104032,4.67610818 11.2464032,4.60300818 11.3194032,4.53000818 C11.3924032,4.34750818 11.4284032,4.16490818 11.3924032,4.01890818 Z" id="Path" fill="#70509C"></path>
                </g>
            </g>
        </g>
    </g>
</svg>