<?xml version="1.0" encoding="UTF-8"?>
<svg width="148px" height="182px" viewBox="0 0 148 182" version="1.1" xmlns="http://www.w3.org/2000/svg" xmlns:xlink="http://www.w3.org/1999/xlink">
    <title>888EC3D5-4A9F-4D22-9003-9FFA01D80B74</title>
    <g id="✅-Radar-covid-QR" stroke="none" stroke-width="1" fill="none" fill-rule="evenodd">
        <g id="3.-M_Radar-covid-subir-código-QR-privado1" transform="translate(-114.000000, -241.000000)" fill-rule="nonzero">
            <g id="Frame2" transform="translate(114.000000, 241.000000)">
                <path d="M135.156003,156.544355 C113.641396,183.765001 74.7851751,189.143648 48.3811243,168.534451 C21.9769682,147.925255 1.70125576,96.3365715 23.2156624,69.1165566 C44.7301639,41.8965418 77.9145245,78.1250788 117.552951,81.1710835 C151.389167,83.7634458 156.67061,129.324761 135.156003,156.544355 Z" id="Path" fill="#EFEFEF"></path>
                <path d="M12.2532981,111.787234 L26.9793379,111.787234 C27.8915993,111.787234 28.5430943,110.938582 28.2825384,110.090989 L18.9647704,78.9145044 C18.7693008,78.3275463 18.2479785,77.9361702 17.6615698,77.9361702 L2.93556167,77.9361702 C2.02333182,77.9361702 1.37174208,78.7840811 1.63238219,79.6319919 L10.9500976,110.808264 C11.0804808,111.395222 11.6016978,111.787234 12.2532981,111.787234 Z" id="Path" fill="#302660"></path>
                <path d="M10.6395538,111.787234 L25.4015152,111.787234 C26.3160019,111.787234 26.9691916,110.938582 26.7078946,110.090989 L17.3673975,78.9145044 C17.1714512,78.3275463 16.6488572,77.9361702 16.0610181,77.9361702 L1.36441791,77.9361702 C0.449962837,77.9361702 -0.203218454,78.7840811 0.058053851,79.6319919 L9.39855665,110.808264 C9.5291946,111.395222 10.0517358,111.787234 10.6395538,111.787234 Z" id="Path" fill="#4B2982"></path>
                <path d="M20.5429076,89.2256817 C22.0420151,94.6783503 23.0413865,99.1282035 22.7915184,99.1908158 C22.5416503,99.2535299 21.1050351,94.9290032 19.6060285,89.4764365 C18.106921,84.0237679 17.1075497,79.5739147 17.3574178,79.5113024 C17.6072859,79.4485883 19.0439011,83.8357273 20.5429076,89.2256817 Z" id="Path" fill="#9DBDE5"></path>
                <path d="M73.7573259,81.8723404 C71.121835,90.9486317 60.1945268,93.1528062 57.6233466,100.673117 C55.0521664,108.193006 35.6400051,131.532191 35.6400051,131.532191 L17.3206058,111.434501 L11.0212766,116.686397 C18.6704027,125.244028 30.4334379,148.129319 36.7970778,151.110694 C43.8677195,154.482776 47.2102122,146.702346 51.0026719,142.553063 C57.4305185,135.617233 68.8721042,119.085398 74.2072928,111.434501 C79.9923444,103.136674 81.0851064,96.9129614 81.0851064,96.9129614 L73.7573259,81.8723404 Z" id="Path" fill="#F19A5A"></path>
                <path d="M16.7634147,118.87234 C15.7215533,115.730076 17.3191489,111.787234 17.3191489,111.787234 L12.5957447,112.28059 L16.7634147,118.87234 Z" id="Path" fill="#F19A5A"></path>
                <path d="M74.2721361,82.0575073 C84.8079709,98.5325423 83.8263116,100.077021 74.7957018,111.467841 C71.1965312,115.972485 56.9960536,139.784684 53.9204487,139.334115 C53.9204487,139.334115 36.4480555,120.027605 39.7854432,121.314496 C39.7854432,121.314496 45.6750817,111.91841 51.7609251,104.581874 C61.9040328,92.2256235 69.5604676,74.6565738 74.2721361,82.0575073 Z" id="Path" fill="#DDDCE0"></path>
                <path d="M5.35517698,110.944756 C4.91293607,110.546501 4.72340426,110.01693 4.72340426,109.420624 C4.72340426,107.23345 4.8497588,102.131481 5.2919997,101.535175 C5.86058494,100.740065 7.18728723,90.9333055 7.81905995,91.3309146 C8.45082246,91.7284161 7.62952814,100.276152 7.62952814,100.276152 C7.62952814,100.276152 9.14576225,99.4810409 9.96705657,99.1497358 C10.7883509,98.7522343 14.1367361,102.661591 14.1367361,102.661591 C14.1367361,102.661591 15.7161169,106.836272 11.4201236,105.047354 C6.30282585,102.9267 10.1565884,108.824318 13.5680692,112.66694 C16.4110975,115.781939 14.0103203,116.510638 14.0103203,116.510638 L10.725143,116.378245 C10.725143,116.311511 6.68187927,112.269761 5.35517698,110.944756 Z" id="Path" fill="#F19A5A"></path>
                <path d="M58.2553191,49.5957447 C58.2553191,49.5957447 59.6611613,48.3768376 60.6170213,48.3768376 L60.1109617,47.2340426 C60.1109617,47.2340426 58.2553191,48.3006017 58.2553191,49.5957447 Z" id="Path" fill="#E06C57"></path>
                <path d="M90.3175472,71.509575 C106.600728,79.5215493 114.002457,85.4013004 119.08744,107.30458 C124.107925,129.20828 125.781766,152.274915 123.142527,167.717396 C115.419345,172.11199 111.556714,178.12084 87.67862,180.12344 C68.3055422,181.738745 51.9574468,170.044316 51.9574468,170.044316 C51.9574468,170.044316 52.9228446,136.186942 58.200595,111.052633 C63.2208714,87.0166051 70.4295213,77.712387 76.5438805,73.4479406 C82.6583436,69.1188401 90.3175472,71.509575 90.3175472,71.509575 Z" id="Path" fill="#FFFFFF"></path>
                <path d="M92.3632781,72.3314161 C94.4317268,77.0106497 90.2302655,83.1247361 83.572763,87.9287262 C76.9152605,92.7326151 72.9078044,90.1123213 73.2309375,86.3065865 C73.6187389,82.5008518 73.9419765,78.5079314 75.4932869,76.1371508 C77.0444928,73.7040426 89.3899941,71.6452042 89.3899941,71.6452042 C89.3899941,71.6452042 92.040145,71.5204476 92.3632781,72.3314161 Z" id="Path" fill="#FFFFFF"></path>
                <path d="M58.6237468,34.6382979 C51.7723154,50.5010941 60.0066921,65.1235358 59.7552383,64.536072 C59.5037845,63.8832872 70.0638298,37.7716858 70.0638298,37.7716858 L58.6237468,34.6382979 Z" id="Path" fill="#70509C"></path>
                <path d="M85.4947469,45.6595745 L92.7849277,73.1289604 C93.0385215,74.03166 92.8483518,74.998883 92.2144185,75.7727453 C90.1858732,78.3520067 87.2698009,83.6394717 81.3742323,85.3160336 C80.233214,85.6384413 78.8386019,85.7029647 77.6974811,85.7673834 C76.4930387,85.7673834 75.6689358,86.0897911 75.4787661,84.9292072 L70.8510638,57.9111711 L85.4947469,45.6595745 Z" id="Path" fill="#F19A5A"></path>
                <path d="M83.1250529,47.2340426 L79.939351,48.5904369 L70.0638298,56.7938577 L75.2245947,85.0212766 C84.1444569,79.2725234 85.6736143,74.6217288 83.1250529,47.2340426 Z" id="Path" fill="#E38540"></path>
                <path d="M85.5098139,60.6611556 C83.4514586,71.3937469 75.2182522,78.635069 67.1179052,76.8893294 C58.9510212,75.1436948 55.1000295,68.1610513 56.0296162,54.2603554 C56.7600211,43.3336763 62.3373268,31.4372936 70.4376738,33.2476241 C78.6044505,34.9286678 87.5680618,49.9284593 85.5098139,60.6611556 Z" id="Path" fill="#F19A5A"></path>
                <path d="M83.9585744,56.2623562 C85.0613165,56.3916447 86.0991607,59.624383 89.0830018,63.8270477 C89.3423842,64.2149133 91.2883813,66.8012089 91.3532793,65.9606759 C92.7154038,54.1934248 98.8776753,50.5727159 97.3857548,38.6760712 C96.3479106,29.947678 90.7695116,30.5942256 90.7695116,30.5942256 C90.7695116,30.5942256 87.8504636,21.154588 76.6935607,21.9304241 C69.1691647,22.512275 58.4663382,15.0769771 53.1473216,24.4519179 C50.2932765,29.4951156 63.2014823,49.0209386 73.255748,42.6200538 C83.3099087,36.2191691 78.3152773,50.3140339 79.9368891,51.4132489 C81.4937077,52.5123589 80.715246,51.5425374 81.4288097,58.7839551 C81.4288097,58.7839551 82.8558323,56.1330677 83.9585744,56.2623562 Z" id="Path" fill="#70509C"></path>
                <path d="M90.9252354,55.8742985 C90.0102426,59.0659178 87.8141613,61.1310772 85.9840772,60.5052775 C84.153993,59.8794778 84.0929606,57.2511392 84.3369916,53.5588598 C84.5199901,50.1794803 87.4481642,48.3020811 89.2781498,48.9278808 C91.108234,49.5536805 91.8402282,52.6826792 90.9252354,55.8742985 Z" id="Path" fill="#F19A5A"></path>
                <path d="M68.584073,68.7589534 C70.3582027,67.7943862 71.031053,67.0227534 70.9698488,67.0869952 C71.2145666,66.701231 71.8263116,67.0227534 71.5815939,67.4728639 C70.7863352,68.6303653 69.8687672,69.5305862 68.584073,70.1093892 C66.7489368,70.9452638 64.7301882,70.881022 64.7301882,70.8166757 C64.4242663,69.8521086 64.6077799,70.0450429 64.6077799,70.0450429 C65.0360113,69.9164549 66.7489368,69.7235205 68.584073,68.7589534 Z" id="Path" fill="#FFFFFF"></path>
                <path d="M71.6382979,48.8085106 C71.6382979,48.8085106 70.0773877,46.157295 68.1770919,46.4729061 L67.7021277,47.7353507" id="Path" fill="#E06C57"></path>
                <path d="M61.4301348,65.3404255 C61.4301348,65.2765631 59.2722979,59.5872033 61.9870612,50.6376426 C62.1262366,50.1901906 62.8919823,50.3819854 62.752807,50.8294375 C62.752807,50.8934037 60.3860383,58.6921953 61.9870612,64.5093838 C64.3538299,64.1897603 65.1891071,63.6144796 65.3282825,64.2537265 C65.4675703,64.8929735 64.4233613,64.7011786 61.4301348,65.3404255 Z" id="Path" fill="#E06C57"></path>
                <path d="M57.4680851,48.0212766 C57.4680851,48.0212766 59.0289953,45.3700494 60.9291814,45.6856742 L61.4042553,46.948173" id="Path" fill="#E06C57"></path>
                <path d="M101.675084,83.5378025 C102.58618,81.8058876 119.703661,105.347572 119.898272,107.272153 C121.395201,125.296739 120.159156,138.06233 112.023354,140.755911 C102.651296,143.835033 71.4762558,101.177993 70.8905285,100.279994 C70.2396854,99.3818905 77.8544557,95.4048737 77.8544557,95.4048737 C77.8544557,95.4048737 99.201838,115.097604 105.059426,115.867645 C98.4859841,101.24218 94.7111569,96.495331 101.675084,83.5378025 Z" id="Path" fill="#F19A5A"></path>
                <path d="M80.1918039,96.2504057 C76.3412427,90.9566992 70.6633449,81.8723404 68.2485558,81.8723404 C65.8337667,81.9377368 52.7811206,85.7282829 48.8000731,86.5779045 C44.8189201,87.4275261 49.2568282,87.8196918 52.911607,87.6888992 C56.6316818,87.5582126 59.2421477,87.9503784 59.2421477,87.9503784 C59.2421477,87.9503784 59.7643042,92.5905461 61.0695899,96.0543228 C62.3095797,99.5180995 65.507498,97.4266905 70.2716748,100.302325 C75.035957,103.112563 85.0212766,116.510638 85.0212766,116.510638 L80.1918039,96.2504057 Z" id="Path" fill="#F19A5A"></path>
                <path d="M98.443954,75.3223214 C116.927786,82.4513002 127.978429,107.819936 127.518074,122.206843 C127.320323,127.923005 120.676542,135.565071 117.914413,136.978723 C117.914413,136.978723 115.480805,110.646196 105.811226,116.16935 C101.798697,118.481271 99.1017405,101.847335 96.2732692,95.8101542 C90.5506225,83.41467 90.2217824,72.1752505 98.443954,75.3223214 Z" id="Path" fill="#DDDCE0"></path>
                <path d="M43.9106174,14.8574916 C43.9106174,14.9208576 43.9754413,15.0477956 43.9754413,15.1111615 C44.1049845,15.4283004 43.9106174,14.6671877 43.9754413,15.0477956 C43.9754413,15.2379965 43.9754413,15.4283004 43.9754413,15.6186043 C43.9754413,15.4917694 43.9754413,15.3014655 43.9754413,15.1746305 C43.9106174,15.5551354 43.8457935,15.9357432 43.7162503,16.2528821 C43.7810743,16.1260472 43.8457935,15.9357432 43.8457935,15.8089083 C43.5867072,16.63349 43.1331492,17.3946028 42.6795911,18.0923495 C42.744415,17.9654115 42.8739582,17.8385766 42.9387821,17.7117416 C42.6147672,18.1557155 42.290857,18.5363234 41.9021228,18.9168282 C42.031666,18.7899933 42.1612091,18.7266273 42.226033,18.5996893 C42.031666,18.7266273 41.9021228,18.8534623 41.7077558,18.9802972 C41.6429319,19.0437662 41.5781079,19.0437662 41.513284,19.1071322 C41.2541977,19.2340702 41.9668421,18.9168282 41.5781079,19.1071322 C41.4485648,19.1706012 41.3837409,19.1706012 41.2541977,19.2340702 C41.0598307,19.2974361 40.9301828,19.2340702 41.3837409,19.2340702 C41.1245499,19.2340702 40.9301828,19.2974361 40.6709918,19.2974361 C40.8006397,19.2974361 40.9950067,19.2974361 41.1245499,19.2974361 C40.7358157,19.2974361 40.4119055,19.1706012 40.0878906,19.1071322 C40.2175385,19.1706012 40.4119055,19.2340702 40.5414487,19.2340702 C40.0231714,19.0437662 39.5047894,18.7899933 39.0512314,18.4728544 C39.1808792,18.5363234 39.3104224,18.6631583 39.4399655,18.7266273 C38.8568643,18.3460194 38.3385871,17.9020456 37.885029,17.4580717 C38.0145721,17.5849067 38.0793961,17.7117416 38.2089392,17.7752106 C38.0793961,17.6482727 38.0145721,17.5214377 37.885029,17.3946028 C37.8202051,17.3311338 37.8202051,17.2677678 37.7553811,17.2042988 C37.6906619,17.0774639 37.6906619,17.0774639 37.7553811,17.2677678 C37.8202051,17.3946028 37.8202051,17.4580717 37.7553811,17.3311338 C37.7553811,17.2677678 37.6906619,17.2042988 37.6906619,17.1409329 C37.625838,16.823794 37.7553811,17.2677678 37.6906619,17.2677678 C37.6906619,17.2677678 37.6906619,16.823794 37.6906619,16.760325 C37.6906619,16.8871599 37.6906619,17.0774639 37.6906619,17.2042988 C37.6906619,16.9506289 37.7553811,16.63349 37.885029,16.3797171 C37.8202051,16.5066551 37.7553811,16.696856 37.7553811,16.823794 C38.0793961,15.9357432 38.5329541,15.0477956 38.8568643,14.1597448 C39.1160553,13.3351631 39.1808792,12.3837464 39.0512314,11.4957987 C38.7920404,9.59292416 38.0145721,7.94379161 37.107456,6.29464876 C36.913089,5.91408209 36.3948117,5.59694319 35.9412536,5.53351541 C35.5525195,5.47008764 34.9694183,5.53351541 34.6454034,5.78722653 C34.2566693,6.04093764 33.9326544,6.42150432 33.8679351,6.92893685 C33.8031112,7.3729313 33.9326544,7.75349797 34.1271261,8.19750273 C34.2566693,8.38778606 34.3214932,8.64149718 34.4510363,8.83178051 C34.5805795,9.08549163 34.2566693,8.45121384 34.4510363,8.83178051 C34.5158603,8.95863607 34.5805795,9.02206385 34.5805795,9.14892971 C34.7749465,9.59292416 34.9694183,10.0369186 35.0989615,10.4809131 C35.1637854,10.671217 35.2285046,10.9248869 35.2933285,11.1786598 C35.2933285,11.3054948 35.3581525,11.4323297 35.3581525,11.4957987 C35.4228717,11.8129376 35.2933285,11.0518249 35.3581525,11.4957987 C35.4228717,11.9397726 35.4876956,12.3837464 35.4228717,12.8277203 C35.4228717,12.7008853 35.4228717,12.5105814 35.4228717,12.3837464 C35.3581525,12.8277203 35.2933285,13.2083281 35.1637854,13.652302 C35.2285046,13.525467 35.2933285,13.3351631 35.2933285,13.2083281 C35.0341375,13.8426059 34.7102273,14.4768837 34.4510363,15.1111615 C34.0623022,16.1260472 33.8679351,17.0139949 34.1271261,18.0923495 C34.5158603,19.804879 36.1356207,21.0099655 37.5610141,21.8980163 C38.9864074,22.7859639 40.9301828,23.1665718 42.550048,22.468825 C44.1049845,21.8345473 45.1416437,20.6294607 45.9839359,19.2340702 C46.891052,17.7117416 47.6685203,15.7454393 46.9558759,13.9694409 C46.631861,13.1448592 45.6600257,12.5105814 44.7529096,12.8911893 C44.1698084,13.0180242 43.5867072,13.9694409 43.9106174,14.8574916 Z" id="Path" fill="#DDDCE0"></path>
                <path d="M34.5557622,0.149560502 C33.7865569,-0.206666636 32.7806509,0.0901888299 32.4256478,0.862013812 C32.0706446,1.63383686 32.3664487,2.64314853 33.135654,2.99937278 C33.9048594,3.35560667 34.9107653,3.05874348 35.2657685,2.28692429 C35.6207716,1.51509545 35.3841666,0.505786674 34.5557622,0.149560502 Z" id="Path" fill="#DDDCE0"></path>
                <path d="M98.6677242,14.8238212 C98.7338826,14.6982045 98.8001482,14.6353451 98.8664137,14.5725878 C98.8001482,14.6353451 98.7338826,14.6982045 98.6677242,14.8238212 C98.8001482,14.6353451 98.9325721,14.5097285 99.1312616,14.3841118 C99.0651032,14.4468691 98.9325721,14.5097285 98.8664137,14.5725878 C99.0651032,14.4468691 99.2637927,14.3212524 99.4624822,14.2584951 C99.3299512,14.3212524 99.2637927,14.3212524 99.1312616,14.3841118 C99.3299512,14.3212524 99.4624822,14.2584951 99.6611717,14.2584951 C99.9261267,14.1956357 99.3299512,14.2584951 99.5949062,14.2584951 C99.6611717,14.2584951 99.7935957,14.2584951 99.8598612,14.2584951 C99.9922852,14.2584951 100.25724,14.3212524 99.8598612,14.2584951 C99.9261267,14.2584951 99.9922852,14.2584951 100.058551,14.3212524 C100.25724,14.3841118 100.45593,14.4468691 100.588461,14.5097285 C100.45593,14.4468691 100.389664,14.4468691 100.25724,14.3841118 C100.588461,14.5097285 100.853309,14.6982045 101.118264,14.8866805 C101.051998,14.8238212 100.919574,14.7609618 100.853309,14.6982045 C101.118264,14.8866805 101.383219,15.1379139 101.581908,15.4520066 C101.515643,15.3891473 101.449484,15.2635306 101.383219,15.2007733 C101.581908,15.514866 101.780598,15.8289587 101.913022,16.1430514 C101.846863,16.0174348 101.846863,15.9545754 101.780598,15.8289587 C101.846863,16.0174348 101.913022,16.2058088 101.979287,16.3942848 C101.979287,16.4571442 101.979287,16.5199015 101.979287,16.5827608 C102.045553,16.7712369 101.979287,16.4571442 101.979287,16.4571442 L101.979287,16.7712369 C101.979287,16.8339942 101.979287,16.9597129 101.979287,17.0224702 C101.979287,17.1480869 101.913022,17.2738057 101.979287,16.8968536 C101.979287,16.9597129 101.979287,16.9597129 101.979287,17.0224702 C101.913022,17.2109463 101.846863,17.3994223 101.780598,17.5878984 C101.846863,17.4621797 101.846863,17.3994223 101.913022,17.2738057 C101.780598,17.525039 101.648174,17.7135151 101.515643,17.9647484 C101.581908,17.9019911 101.648174,17.7762724 101.714332,17.7135151 C101.515643,17.9019911 101.316953,18.0903651 101.118264,18.2788411 C101.184529,18.2160838 101.316953,18.1532245 101.383219,18.0904671 C101.184529,18.2160838 100.98584,18.3417005 100.78715,18.4045599 C100.919574,18.3417005 100.98584,18.3417005 101.118264,18.2788411 C100.522195,18.4673172 99.9922852,18.5929339 99.4624822,18.9698859 C98.8001482,19.4095954 98.4689276,20.1006402 98.5351931,20.8544423 C98.6014587,21.9851965 98.8664137,23.1159507 98.9988377,24.1838456 C99.0651032,24.4979383 99.3299512,24.812031 99.6611717,25.000507 C99.9261267,25.1889831 100.389664,25.2517404 100.654619,25.1261237 C100.98584,25.000507 101.316953,24.812031 101.515643,24.4979383 C101.714332,24.1838456 101.714332,23.8697528 101.648174,23.5556601 C101.581908,22.9274747 101.449484,22.3621486 101.383219,21.7339631 C101.316953,21.4198704 101.316953,21.1057777 101.250688,20.8544423 C101.250688,20.7915829 101.184529,20.5403496 101.250688,20.791685 C101.250688,21.0429183 101.250688,20.791685 101.250688,20.7288256 C101.250688,20.6659662 101.250688,20.6659662 101.250688,20.6032089 C101.250688,20.4774902 101.250688,20.5403496 101.250688,20.791685 C101.250688,20.7288256 101.316953,20.6659662 101.316953,20.6032089 C101.250688,20.7288256 101.250688,20.791685 101.184529,20.9173016 C101.250688,20.8544423 101.250688,20.791685 101.316953,20.7288256 C101.250688,20.791685 101.184529,20.9173016 101.118264,20.980059 C101.184529,20.9173016 101.184529,20.9173016 101.250688,20.8544423 C101.184529,20.9173016 101.051998,20.980059 100.98584,21.0429183 C101.118264,20.980059 101.250688,20.9173016 101.383219,20.8544423 C101.250688,20.9173016 101.184529,20.9173016 101.051998,20.980059 C101.581908,20.791685 102.177977,20.6659662 102.641621,20.3518735 C103.171531,20.0377808 103.635069,19.5980714 103.966289,19.0955026 C104.628623,18.1532245 104.827313,16.9597129 104.628623,15.8289587 C104.231244,13.693067 102.111711,11.8085106 99.7935957,11.8085106 C98.4027692,11.8085106 96.9455701,12.4995554 96.2170776,13.6303097 C95.885857,14.1956357 96.018388,15.0750545 96.6807221,15.3891473 C97.4754801,15.5776233 98.3365036,15.4520066 98.6677242,14.8238212 Z" id="Path" fill="#4B2982"></path>
                <path d="M101.17789,30.3843717 C101.638138,29.981541 101.695704,29.1184927 101.235363,28.7157555 C100.775115,28.2554443 100.027131,28.1979639 99.5667907,28.6581815 C99.1065429,29.0610122 99.0489771,29.9240605 99.5093178,30.3267977 C99.9695655,30.7871088 100.659984,30.8445893 101.17789,30.3843717 Z" id="Path" fill="#40B6E6"></path>
                <path d="M101.17789,30.3843717 C101.638138,29.981541 101.695704,29.1184927 101.235363,28.7157555 C100.775115,28.2554443 100.027131,28.1979639 99.5667907,28.6581815 C99.1065429,29.0610122 99.0489771,29.9240605 99.5093178,30.3267977 C99.9695655,30.7871088 100.659984,30.8445893 101.17789,30.3843717 Z" id="Path" fill="#4B2982"></path>
                <path d="M35.7844091,60.2558062 C35.5854695,60.0000094 35.4529501,59.7442126 35.3204308,59.4244146 C35.2541176,59.3604134 35.2541176,59.2964123 35.1878044,59.232515 C35.1878044,59.1685139 35.0552851,58.9766143 35.1878044,59.1685139 C35.3204308,59.4244146 35.1878044,59.1685139 35.1878044,59.1046166 C35.1878044,59.0406155 35.1215983,58.9766143 35.1215983,58.912717 C34.9227658,58.3370184 34.7238261,57.7614236 34.65762,57.1218276 C34.65762,57.249726 34.7238261,57.3776244 34.7238261,57.5055228 C34.5913068,56.7380285 34.5913068,55.9705341 34.65762,55.1390386 C34.65762,55.266937 34.65762,55.3948354 34.5913068,55.5228377 C34.5913068,55.3948354 34.65762,55.2030398 34.65762,55.0750375 C34.1936417,55.4588366 33.7296635,55.7786346 33.1994791,56.1624337 C35.7180959,56.0984325 38.0378802,54.1156435 38.5018584,51.6851582 C38.700691,50.4699674 38.5018584,49.1267744 37.7727344,48.1033793 C37.0437175,47.016087 35.9832416,46.3124899 34.7238261,45.9287946 C33.3319984,45.4810982 31.8738575,45.6089966 30.6145491,46.1845914 C30.2830901,46.3125938 30.0179444,46.7602901 29.9517383,47.0800881 C29.885425,47.3998861 29.885425,47.8475825 30.1505708,48.1673804 C30.3494033,48.4871784 30.6807552,48.7429752 31.0784202,48.8069764 C31.4761924,48.8709775 31.8738575,48.8069764 32.2052093,48.6150768 C32.4040418,48.4871784 31.8075443,48.7430791 32.1388961,48.6150768 C32.2052093,48.6150768 32.2715225,48.5511796 32.3378358,48.5511796 C32.4703551,48.4871784 32.6691876,48.4871784 32.8017069,48.4231773 C32.6691876,48.4231773 32.5366683,48.4871784 32.4040418,48.4871784 C32.7355008,48.4231773 33.0668527,48.4231773 33.4645177,48.4871784 C33.3319984,48.4871784 33.1994791,48.4871784 33.0668527,48.4231773 C33.4645177,48.4871784 33.8621828,48.5511796 34.1936417,48.679078 C34.0611224,48.6150768 33.928496,48.5511796 33.7959767,48.5511796 C34.1273285,48.679078 34.5249936,48.8709775 34.7901393,49.1267744 C34.65762,49.0628771 34.5913068,48.998876 34.4587875,48.8709775 C34.65762,48.998876 34.7901393,49.1267744 34.9889719,49.3186739 C35.0552851,49.3826751 35.1215983,49.5744707 35.2541176,49.5744707 C35.1878044,49.5744707 34.9889719,49.2546728 35.1215983,49.4465723 C35.1878044,49.5105735 35.1878044,49.5744707 35.2541176,49.5744707 C35.3204308,49.6384719 35.3866369,49.7663703 35.4529501,49.8303715 C35.4529501,49.8942687 35.5192634,49.9582699 35.5192634,49.9582699 C35.5192634,49.9582699 35.3866369,49.5744707 35.4529501,49.8303715 C35.5192634,50.022271 35.5854695,50.2780678 35.6517827,50.4699674 C35.6517827,50.342069 35.5854695,50.2140667 35.5854695,50.0861683 C35.6517827,50.4059663 35.6517827,50.661867 35.5854695,50.981665 C35.5854695,50.8536626 35.5854695,50.7257642 35.6517827,50.5978658 C35.5854695,50.9176638 35.5192634,51.2374618 35.3866369,51.5572597 C35.4529501,51.4293613 35.5192634,51.3014629 35.5192634,51.1735645 C35.3866369,51.5572597 35.1878044,51.8770577 34.9227658,52.1968557 C34.9889719,52.0689573 35.0552851,52.0049561 35.1878044,51.8770577 C35.0552851,52.0689573 34.8564526,52.2608568 34.65762,52.3887553 C34.5249936,52.5166537 34.1936417,52.7085532 34.65762,52.4527564 C34.5249936,52.5166537 34.4587875,52.5806548 34.3261611,52.6445521 C34.1936417,52.7085532 34.1273285,52.7725544 33.9948092,52.8364516 C33.928496,52.8364516 33.8621828,52.9004528 33.7959767,52.9004528 C33.7959767,52.8364516 34.1936417,52.7725544 33.928496,52.8364516 C33.6633502,52.9004528 33.4645177,52.9643501 33.1994791,53.0283512 C33.3319984,53.0283512 33.4645177,52.9643501 33.5971442,52.9643501 C33.3983116,52.9643501 33.2656852,53.0283512 33.0668527,53.0283512 C32.4703551,53.0283512 31.741231,53.5400487 31.6087117,54.1156435 C31.1447334,56.6741312 31.6750249,59.2964123 33.1331659,61.4711008 C33.5308309,62.1106968 34.5249936,62.4304948 35.1878044,61.9827984 C35.9169284,61.8549 36.1820742,60.9594033 35.7844091,60.2558062 Z" id="Path" fill="#70509C"></path>
                <path d="M35.804045,67.7489284 C34.9781982,67.5452169 34.0834938,68.0204702 33.8770321,68.9031464 C33.7393168,69.7178821 34.1522402,70.6005583 35.0469446,70.8042698 C35.8729026,71.0079813 36.767607,70.5326177 36.9740687,69.6500518 C37.1116727,68.8352058 36.6987493,67.9526399 35.804045,67.7489284 Z" id="Path" fill="#70509C"></path>
            </g>
        </g>
    </g>
</svg>