<?xml version="1.0" encoding="UTF-8"?>
<svg width="356px" height="347px" viewBox="0 0 356 347" version="1.1" xmlns="http://www.w3.org/2000/svg" xmlns:xlink="http://www.w3.org/1999/xlink">
    <title>0DA3C137-770F-403B-9251-A7645CD6AC19</title>
    <defs>
        <polygon id="path-1" points="0.84063242 0.618095781 293.842115 0.618095781 293.842115 314.807697 0.84063242 314.807697"></polygon>
    </defs>
    <g id="ðŸ—-Radar-covid-QR" stroke="none" stroke-width="1" fill="none" fill-rule="evenodd">
        <g id="2-Radar-covid-generar-QR-publico-y-privado--" transform="translate(-165.000000, -1050.000000)">
            <g id="Group-24" transform="translate(165.000000, 1050.000000)">
                <g id="Group-53" transform="translate(147.221902, 189.285303) scale(-1, 1) translate(-147.221902, -189.285303) translate(0.000000, 31.804035)">
                    <mask id="mask-2" fill="white">
                        <use xlink:href="#path-1"></use>
                    </mask>
                    <g id="Clip-52"></g>
                    <path d="M243.241656,33.1425744 C304.065832,85.4870149 311.038215,177.341756 258.816918,238.308004 C206.594458,299.274252 82.5730988,344.063091 21.7500866,291.719817 C-39.0740894,239.375377 50.8779109,163.32009 63.6996001,70.176336 C74.6557028,-9.42286251 182.41748,-19.201866 243.241656,33.1425744" id="Fill-51" fill="#EEEEEE" mask="url(#mask-2)"></path>
                </g>
                <path d="M247.935966,11.8319837 C223.279014,-10.4012414 205.170286,2.86170555 191.685529,17.683078 C180.936208,29.4972492 181.58838,24.0765883 172.708006,36.316527 C171.389834,38.1339123 168.838757,42.8500156 168.181976,50.4461731 C167.018206,63.9284195 170.14195,91.2801857 156.9683,98.8051875 C156.9683,98.8051875 194.041876,125.57721 234.217303,118.992396 C274.39273,112.407582 247.935966,11.8319837 247.935966,11.8319837" id="Fill-54" fill="#6F509C" transform="translate(206.726225, 60.017291) scale(-1, 1) translate(-206.726225, -60.017291) "></path>
                <path d="M132.017341,7.1815562 C179.326258,33.7006358 137.315682,65.3096246 190.525704,65.3096246 C195.129256,65.3096246 145.2862,139.096978 123.747742,104.776248 C102.206983,70.4566844 132.017341,7.1815562 132.017341,7.1815562" id="Fill-56" fill="#6F509C" transform="translate(153.377522, 60.530259) scale(-1, 1) translate(-153.377522, -60.530259) "></path>
                <path d="M136.074857,60.5302594 C149.995701,124.390138 194.927954,112.451164 194.927954,112.451164 C194.927954,112.451164 161.714212,141.694715 140.529761,142.590377 C132.488035,142.931183 122.076903,137.38023 122.711315,126.959935 C123.348064,116.539641 120.166657,91.1406217 116.349671,82.0225651 C112.531516,72.9045085 136.074857,60.5302594 136.074857,60.5302594" id="Fill-58" fill="#F7C2B1" transform="translate(155.429395, 101.567723) scale(-1, 1) translate(-155.429395, -101.567723) "></path>
                <path d="M302.260415,113.878963 C290.123449,132.516787 258.33594,130.187204 247.353669,145.330655 C236.372551,160.474105 213.254467,243.761921 213.254467,243.761921 L188.979385,159.309314 C188.979385,159.309314 169.293117,155.976361 175.686573,169.792437 C187.056047,194.365704 191.295687,273.644686 203.625101,284.905886 C217.338535,297.428265 230.983978,287.235469 238.684244,265.312305 C246.133289,244.104506 264.69252,198.332731 277.986484,180.858536 C291.279296,163.385503 305.729107,135.429347 305.729107,135.429347 L302.260415,113.878963 Z" id="Fill-60" fill="#F7C2B1" transform="translate(240.069164, 202.109510) scale(-1, 1) translate(-240.069164, -202.109510) "></path>
                <path d="M252.703353,116.272429 C228.026047,144.654341 179.845319,143.495967 169.268661,140.019688 L158.692003,136.545718 C158.692003,136.545718 150.466625,133.649204 143.416301,141.757827 C136.364806,149.867605 119.324766,200.840711 116.387716,212.424458 C113.449496,224.008205 108.74928,243.12312 108.74928,243.12312 C108.74928,243.12312 121.355043,258.038783 121.355043,273.099963 C121.355043,288.159989 116.001108,288.288184 116.001108,288.288184 C116.001108,288.288184 131.66459,284.828074 135.189752,275.561077 C138.714914,266.291769 170.443715,182.304406 170.443715,182.304406 L257.992853,184.042546 C257.992853,184.042546 273.269727,114.534289 265.630118,113.955679 C257.992853,113.375915 252.703353,116.272429 252.703353,116.272429" id="Fill-62" fill="#FEFEFE" transform="translate(188.259366, 201.083573) scale(-1, 1) translate(-188.259366, -201.083573) "></path>
                <path d="M255.688023,286.187066 C255.400761,286.285556 255.228403,286.285556 255.228403,286.285556 C255.228403,286.285556 255.396657,286.252726 255.688023,286.187066" id="Fill-64" fill="#087CC0" transform="translate(255.458213, 286.236311) scale(-1, 1) translate(-255.458213, -286.236311) "></path>
                <path d="M214.907051,245.092429 C219.946377,246.653145 228.473932,264.608963 228.473932,264.608963 C228.473932,264.608963 247.855687,222.062242 253.670561,163.123919 L260.587896,203.108359 C251.03787,228.928457 236.048571,269.442863 233.701059,275.748762 C230.509602,284.316939 217.640599,287.891293 215.876197,288.288184 C216.358451,288.123591 217.424975,287.475725 218.308335,284.902937 C218.816094,284.436007 221.728168,283.065565 222.273022,282.563615 C226.922835,278.270187 224.984544,268.121449 221.884668,256.801883 C218.783634,245.482316 209.866566,243.530546 214.907051,245.092429" id="Fill-66" fill="#FEFEFE" transform="translate(236.991354, 225.706052) scale(-1, 1) translate(-236.991354, -225.706052) "></path>
                <path d="M243.146974,140.553314 C224.899738,188.657385 251.449045,193.845784 227.437339,250.306751 C214.026848,281.840894 243.878951,311.258839 234.437985,318.990389 C227.921369,324.326133 201.450361,330.167723 171.515214,335.411812 C134.541457,341.890349 95.4121037,338.892401 95.4121037,338.892401 C95.4121037,338.892401 105.887567,293.803681 107.077475,282.748168 C108.267383,271.691495 113.431561,227.839544 106.688352,196.803125 C101.420962,172.568939 123.141828,148.333592 123.141828,148.333592 L159.435807,146.587497 L243.146974,140.553314 Z" id="Fill-68" fill="#FEFEFE" transform="translate(169.279539, 240.069164) scale(-1, 1) translate(-169.279539, -240.069164) "></path>
                <path d="M215.069338,212.526624 C218.173771,201.04786 201.881296,216.08851 175.116578,218.859654 C148.34954,221.629615 118.480388,217.275805 133.220647,222.024985 C147.960905,226.775349 188.30462,219.651579 180.93333,234.692228 C172.260406,252.393933 162.017864,269.522707 147.185957,279.81536 C137.488663,286.54376 114.213532,292.876789 136.712554,289.31372 C159.211577,285.750651 183.261655,258.835867 193.733898,241.420628 C204.208461,224.004205 214.377917,215.085879 215.069338,212.526624" id="Fill-70" fill="#DCDBDF" transform="translate(171.331412, 249.302594) scale(-1, 1) translate(-171.331412, -249.302594) "></path>
                <path d="M183.485785,122.204765 C183.240124,110.412624 180.284933,90.2882319 176.827529,82.4319088 C173.993353,75.9962973 185.706414,67.9161474 192.578867,63.8495666 L198.388807,63.6080692 C199.274638,65.4870368 200.104802,67.3530461 200.8793,69.2049189 C207.01477,108.419386 188.654344,124.623274 179.892844,127.8829 C176.111119,129.291831 171.874377,129.447332 168.253602,129.129262 C173.661771,127.256184 178.931983,125.126295 183.485785,122.204765" id="Fill-72" fill="#F2A38B" transform="translate(185.181556, 96.438040) scale(-1, 1) translate(-185.181556, -96.438040) "></path>
                <path d="M175.783005,75.784892 C179.6238,96.7126619 188.497947,113.595833 203.514432,110.414439 C218.530916,107.231881 234.316463,85.1263775 230.160588,64.2615132 C226.006973,43.3978138 210.465357,29.0646504 195.448873,32.2460442 C180.432389,35.4286029 170.663826,47.8990609 175.783005,75.784892" id="Fill-74" fill="#F7C2B1" transform="translate(202.622478, 71.302594) scale(-1, 1) translate(-202.622478, -71.302594) "></path>
                <path d="M256.48415,179.538905 C256.48415,179.538905 284.532541,257.686822 285.867853,265.799939 C287.204306,273.910689 284.532541,279.054755 283.769017,279.054755 C283.005493,279.054755 259.154773,236.715314 259.154773,236.715314 L256.48415,179.538905 Z" id="Fill-76" fill="#F7C2B1" transform="translate(271.360231, 229.296830) scale(-1, 1) translate(-271.360231, -229.296830) "></path>
                <path d="M296.368082,176.461095 C294.289862,168.314382 297.521614,157.994236 297.521614,157.994236 L288.288184,159.351413 L296.368082,176.461095 Z" id="Fill-78" fill="#F7C2B1" transform="translate(292.904899, 167.227666) scale(-1, 1) translate(-292.904899, -167.227666) "></path>
                <path d="M289.426904,163.123919 L319.421054,163.123919 C321.242644,163.123919 322.549463,161.400776 322.028664,159.688292 L303.094255,97.3211802 C302.749467,96.1878141 301.689786,95.4121037 300.486644,95.4121037 L270.491289,95.4121037 C268.670905,95.4121037 267.364086,97.1352466 267.884885,98.8500994 L286.819294,161.214843 C287.162877,162.348209 288.223763,163.123919 289.426904,163.123919" id="Fill-80" fill="#302660" transform="translate(294.956772, 129.268012) scale(-1, 1) translate(-294.956772, -129.268012) "></path>
                <path d="M291.478733,163.123919 L321.472923,163.123919 C323.294516,163.123919 324.601337,161.400776 324.080537,159.688292 L305.146102,97.3211802 C304.802519,96.1878141 303.741631,95.4121037 302.538488,95.4121037 L272.544298,95.4121037 C270.723911,95.4121037 269.415885,97.1352466 269.936684,98.8500994 L288.871119,161.214843 C289.214702,162.348209 290.27559,163.123919 291.478733,163.123919" id="Fill-82" fill="#4A2981" transform="translate(297.008646, 129.268012) scale(-1, 1) translate(-297.008646, -129.268012) "></path>
                <path d="M283.589923,118.753512 C286.661547,129.51814 288.728986,138.358944 288.207783,138.499739 C287.68658,138.640534 284.773634,130.028381 281.70201,119.262626 C278.629228,108.499125 276.562947,99.6583205 277.082992,99.5175254 C277.604195,99.3778567 280.5183,107.988883 283.589923,118.753512" id="Fill-84" fill="#6F509C" transform="translate(282.645533, 119.008646) scale(-1, 1) translate(-282.645533, -119.008646) "></path>
                <path d="M304.722045,181.590778 C303.87436,171.555396 295.197985,162.148671 291.898356,159.146376 C290.894974,158.234594 290.328697,156.940303 290.340058,155.582452 C290.387516,150.58094 290.610106,138.77053 291.641168,137.391878 C292.955945,135.63534 296.241734,113.024529 297.776793,113.903954 C299.3107,114.781068 297.338534,134.537503 297.338534,134.537503 C297.338534,134.537503 301.062582,132.782121 303.033594,131.903851 C305.00576,131.025582 313.111244,140.025531 313.111244,140.025531 C313.111244,140.025531 316.912564,149.647201 306.522366,145.526269 C294.181916,140.63223 303.437254,154.284694 311.663836,163.043118 C318.441857,170.259949 312.674138,171.855857 312.674138,171.855857 L307.197055,171.637445 L304.722045,181.590778 Z" id="Fill-86" fill="#F7C2B1" transform="translate(302.651297, 147.734870) scale(-1, 1) translate(-302.651297, -147.734870) "></path>
                <path d="M172.357349,44.4460511 C232.651854,79.3446542 235.965418,55.9060088 235.965418,55.9060088 L232.386721,22.5706052 L196.606885,24.522852 L172.357349,44.4460511 Z" id="Fill-88" fill="#6F509C" transform="translate(204.161383, 43.089337) scale(-1, 1) translate(-204.161383, -43.089337) "></path>
                <path d="M163.545623,61.9728785 C162.259153,68.1381627 164.015113,73.8687388 167.466033,74.7723455 C170.915864,75.6771733 174.754576,71.4106843 176.039957,65.2454002 C177.325337,59.0788949 175.569377,53.3483188 172.119546,52.443491 C168.669716,51.5398843 164.831003,55.8063733 163.545623,61.9728785" id="Fill-90" fill="#F7C2B1" transform="translate(169.792507, 63.608069) scale(-1, 1) translate(-169.792507, -63.608069) "></path>
                <path d="M220.176995,294.366406 C201.495483,297.934168 145.718144,177.021447 133.457629,166.656662 C124.995566,159.501225 144.386861,151.838617 144.386861,151.838617 L223.309218,247.747717 C223.309218,247.747717 227.941046,292.882376 220.176995,294.366406" id="Fill-92" fill="#F7C2B1" transform="translate(178.000000, 223.141210) scale(-1, 1) translate(-178.000000, -223.141210) "></path>
                <path d="M264.68628,157.904353 C257.10236,147.094471 247.806759,129.336784 242.809033,129.268012 C237.810103,129.200258 210.549671,136.015007 202.302038,137.391841 C194.0532,138.766361 203.10548,139.908323 210.759264,139.842374 C218.413048,139.775268 223.796234,140.781861 223.796234,140.781861 C223.796234,140.781861 224.633404,150.014748 227.010004,156.929 C229.386604,163.845566 236.165876,159.984645 245.812005,165.893461 C255.459338,171.802277 269.821326,196.979827 269.821326,196.979827 L264.68628,157.904353 Z" id="Fill-94" fill="#F7C2B1" transform="translate(234.426513, 163.123919) scale(-1, 1) translate(-234.426513, -163.123919) "></path>
                <path d="M124.33897,113.911597 C90.4671387,130.190459 101.799191,178.224906 101.799191,178.224906 L91.3083573,229.708657 C91.3083573,229.708657 91.422224,227.951595 98.2263351,238.525216 C105.031608,249.096521 104.413475,290.336534 104.413475,290.336534 C112.348119,290.672205 114.510423,267.066467 136.149727,200.457867 C157.789031,133.849267 143.72418,120.465274 137.016507,116.90601 C130.31232,113.347902 124.33897,113.911597 124.33897,113.911597" id="Fill-96" fill="#DCDBDF" transform="translate(119.521614, 202.109510) scale(-1, 1) translate(-119.521614, -202.109510) "></path>
                <path d="M210.317003,94.7362246 C210.317003,94.7362246 210.950816,96.5776004 212.933212,97.4639769 L219.550432,90.2824207 C216.690285,91.0677694 211.327908,94.6104163 210.317003,94.7362246" id="Fill-98" fill="#FEFEFE" transform="translate(214.933718, 93.873199) scale(-1, 1) translate(-214.933718, -93.873199) "></path>
                <path d="M204.161383,95.0150663 C204.840974,94.6272622 205.525478,94.2148357 206.213256,93.757268 L204.161383,95.0150663 Z" id="Fill-100" fill="#FEFEFE" transform="translate(205.187320, 94.386167) scale(-1, 1) translate(-205.187320, -94.386167) "></path>
                <line x1="194.927954" y1="61.556196" x2="176.461095" y2="63.6080692" id="Stroke-102" stroke="#FEFEFE" stroke-width="2" stroke-linecap="round" stroke-linejoin="round" transform="translate(185.694524, 62.582133) scale(-1, 1) translate(-185.694524, -62.582133) "></line>
                <path d="M222.628242,61.556196 L245.198847,62.4407109 C245.198847,62.4407109 244.157197,72.4925992 239.56328,72.8340284 C234.970497,73.1775915 222.628242,61.556196 222.628242,61.556196 Z" id="Stroke-104" stroke="#FEFEFE" stroke-width="2" stroke-linecap="round" stroke-linejoin="round" transform="translate(233.913545, 67.198847) scale(-1, 1) translate(-233.913545, -67.198847) "></path>
                <path d="M217.498559,59.5043228 L192.876081,60.548675 C192.876081,60.548675 194.011775,72.428325 199.024377,72.8327387 C204.035852,73.2371523 217.498559,59.5043228 217.498559,59.5043228 Z" id="Stroke-106" stroke="#FEFEFE" stroke-width="2" stroke-linecap="round" stroke-linejoin="round" transform="translate(205.187320, 66.172911) scale(-1, 1) translate(-205.187320, -66.172911) "></path>
                <line x1="217.498559" y1="66.685879" x2="224.680115" y2="66.685879" id="Stroke-108" stroke="#FEFEFE" stroke-width="2" stroke-linecap="round" stroke-linejoin="round" transform="translate(221.089337, 66.685879) scale(-1, 1) translate(-221.089337, -66.685879) "></line>
                <path d="M225.682751,88.2305476 C225.663145,88.2305476 225.64494,88.2305476 225.626734,88.2292881 C221.422683,88.0302911 219.782795,85.7808701 219.714174,85.6851501 C219.554527,85.4584447 219.509713,85.1826199 219.588137,84.9256871 L224.668849,68.4064229 C224.824295,67.9026332 225.394265,67.6066567 225.961434,67.7464584 C226.521601,67.88626 226.847898,68.4064229 226.693852,68.9089531 L221.758783,84.9533956 C222.255931,85.4030279 223.471493,86.2355403 225.735967,86.3425957 C226.315739,86.3703041 226.761072,86.8148985 226.730263,87.3363208 C226.700854,87.8388511 226.237316,88.2305476 225.682751,88.2305476" id="Fill-110" fill="#DF6C56" transform="translate(223.141210, 77.971182) scale(-1, 1) translate(-223.141210, -77.971182) "></path>
                <path d="M312.877892,62.561008 C312.45068,67.7968515 305.11996,84.1268012 305.11996,84.1268012 C305.11996,84.1268012 294.028624,66.3342808 294.455836,61.0984373 C294.881893,55.8625937 299.35145,51.9468257 304.438731,52.351512 C309.526013,52.7539185 313.303949,57.3263044 312.877892,62.561008" id="Fill-112" fill="#4A2981" transform="translate(303.677233, 68.224784) scale(-1, 1) translate(-303.677233, -68.224784) "></path>
                <path d="M310.826026,62.622689 C310.398912,67.8883469 300.710353,84.1268012 300.710353,84.1268012 C300.710353,84.1268012 291.981068,66.4171276 292.407028,61.150323 C292.834142,55.884665 297.302677,51.9445952 302.387641,52.3516746 C307.474914,52.7576073 311.251986,57.3558843 310.826026,62.622689" id="Fill-114" fill="#6F509C" transform="translate(301.625360, 68.224784) scale(-1, 1) translate(-301.625360, -68.224784) "></path>
                <path d="M306.742245,62.3453545 C306.577847,64.3226087 304.839259,65.8010827 302.86493,65.6492153 C300.889051,65.4958589 299.420325,63.7702282 299.586274,61.792974 C299.752223,59.8157198 301.487708,58.3372459 303.465139,58.4891133 C305.441018,58.6409807 306.908194,60.3681003 306.742245,62.3453545" id="Fill-116" fill="#4A2981" transform="translate(303.164265, 62.069164) scale(-1, 1) translate(-303.164265, -62.069164) "></path>
                <path d="M355.950728,22.3742112 C355.310886,30.1434869 344.314951,54.3746398 344.314951,54.3746398 C344.314951,54.3746398 327.677863,27.9715068 328.317705,20.2045716 C328.957547,12.4352958 335.661509,6.62384482 343.292881,7.22418198 C350.924254,7.82334891 356.590569,14.6061057 355.950728,22.3742112" id="Fill-118" fill="#4A2981" transform="translate(342.149856, 30.778098) scale(-1, 1) translate(-342.149856, -30.778098) "></path>
                <path d="M353.898863,22.4654749 C353.25913,30.279724 338.726165,54.3746398 338.726165,54.3746398 C338.726165,54.3746398 325.630804,28.094842 326.270537,20.2817701 C326.91027,12.467521 333.613092,6.62154916 341.243168,7.22427522 C348.873244,7.82700127 354.538596,14.6512258 353.898863,22.4654749" id="Fill-120" fill="#6F509C" transform="translate(340.097983, 30.778098) scale(-1, 1) translate(-340.097983, -30.778098) "></path>
                <path d="M344.70185,21.3083297 C344.536604,23.286008 342.800446,24.7641165 340.823929,24.6116704 C338.848486,24.4602544 337.380585,22.7328761 337.545831,20.7551978 C337.711077,18.7785495 339.448308,17.2983809 341.423752,17.451857 C343.400268,17.604303 344.868169,19.3306514 344.70185,21.3083297" id="Fill-122" fill="#4A2981" transform="translate(341.123919, 21.031700) scale(-1, 1) translate(-341.123919, -21.031700) "></path>
            </g>
        </g>
    </g>
</svg>