<?xml version="1.0" encoding="UTF-8"?>
<svg width="20px" height="20px" viewBox="0 0 20 20" version="1.1" xmlns="http://www.w3.org/2000/svg" xmlns:xlink="http://www.w3.org/1999/xlink">
    <title>94E6AD55-61AF-44E1-8131-35088C78BD64</title>
    <defs>
        <polygon id="path-1" points="0 0 1600 0 1600 1249.02683 0 1249.02683"></polygon>
    </defs>
    <g id="ðŸ—-Radar-covid-QR" stroke="none" stroke-width="1" fill="none" fill-rule="evenodd">
        <g id="2-Radar-covid-generar-QR-publico-y-privado--" transform="translate(-701.000000, -1330.000000)">
            <rect fill="#FAF9F7" x="0" y="0" width="1440" height="1684"></rect>
            <g id="Group-3" opacity="0.300292969" transform="translate(-80.000000, 285.000000)">
                <mask id="mask-2" fill="white">
                    <use xlink:href="#path-1"></use>
                </mask>
                <g id="Clip-2"></g>
                <path d="M1595.44798,648.028153 C1548.78967,1023.70757 1206.59941,1290.40989 831.15789,1243.72269 C455.705389,1197.03 -43.6182064,825.681313 3.04559959,450.007396 C49.7039131,74.3224866 582.800548,230.173633 981.683816,38.0059489 C1322.56138,-126.220864 1642.10629,272.354236 1595.44798,648.028153" id="Fill-1" fill="#EEEEEE" mask="url(#mask-2)"></path>
            </g>
            <g id="Group-14" transform="translate(685.000000, 1184.000000)"></g>
            <path d="M643,818 L939,818 C943.418278,818 947,821.581722 947,826 L947,1462 C947,1466.41828 943.418278,1470 939,1470 L643,1470 C638.581722,1470 635,1466.41828 635,1462 L635,826 C635,821.581722 638.581722,818 643,818 Z" id="Rectangle-Copy" stroke="#979797"></path>
            <path d="M683,1184 L899,1184 C903.418278,1184 907,1187.58172 907,1192 L907,1422 C907,1426.41828 903.418278,1430 899,1430 L683,1430 C678.581722,1430 675,1426.41828 675,1422 L675,1192 C675,1187.58172 678.581722,1184 683,1184 Z" id="Rectangle" fill="#EAE8F0"></path>
            <g id="03_ico-/-20px-/-note-copy-3" transform="translate(701.000000, 1330.000000)" fill="#65498D">
                <path d="M10,0 C10.5941478,0 11.1710924,0.0623674397 11.7258738,0.181796241 L12.0548961,0.25999999 L12.537859,0.389409513 C12.8045921,0.460880419 12.9628833,0.735048897 12.8914124,1.00178195 C12.8199415,1.268515 12.545773,1.42680625 12.27904,1.35533534 L11.804,1.227 L11.8041529,1.22801418 C11.2240807,1.07703118 10.6202182,1 10,1 C6.13106361,1 3,4.0898654 3,7.89473684 C3,10.3257062 5.31549575,13.9419419 9.99717075,18.5964975 C14.7150931,13.8706265 17.0363432,10.2529155 17.0092828,7.90626761 L17.01,7.906 L17.0100002,7.53999996 C17.0100002,7.26385759 17.2338579,7.03999996 17.5100002,7.03999996 C17.7861426,7.03999996 18.0100002,7.26385759 18.0100002,7.53999996 L18.0100002,8.03999996 L18.007,8.039 L18.0073841,8.08481728 C17.9217953,10.8989722 15.2526673,14.8706998 10,20 C4.66666667,14.8365864 2,10.8014987 2,7.89473684 C2,3.53459408 5.581722,0 10,0 Z M16.8159564,2.11403488 C17.0291191,2.28958059 17.0596136,2.60469098 16.8840679,2.81785363 L9.88406794,11.3178536 C9.70776145,11.5319401 9.39089369,11.5616255 9.17789113,11.384011 L6.17978831,8.88401103 C5.96770487,8.707163 5.93914093,8.39187174 6.11598897,8.17978831 C6.292837,7.96770487 6.60812826,7.93914093 6.82021169,8.11598897 L9.43194417,10.2938099 L16.1121377,2.18214637 C16.2876834,1.96898373 16.6027938,1.93848917 16.8159564,2.11403488 Z" id="location-check"></path>
            </g>
        </g>
    </g>
</svg>