<?xml version="1.0" encoding="UTF-8"?>
<svg width="20px" height="20px" viewBox="0 0 20 20" version="1.1" xmlns="http://www.w3.org/2000/svg" xmlns:xlink="http://www.w3.org/1999/xlink">
    <title>40C53DA6-3915-4406-9482-27FCEC2556FE</title>
    <defs>
        <polygon id="path-1" points="0 0 1600 0 1600 1249.02683 0 1249.02683"></polygon>
    </defs>
    <g id="ðŸ—-Radar-covid-QR" stroke="none" stroke-width="1" fill="none" fill-rule="evenodd">
        <g id="2-Radar-covid-generar-QR-publico-y-privado--" transform="translate(-1029.000000, -1249.000000)">
            <rect fill="#FAF9F7" x="0" y="0" width="1440" height="1684"></rect>
            <g id="Group-3" opacity="0.300292969" transform="translate(-80.000000, 285.000000)">
                <mask id="mask-2" fill="white">
                    <use xlink:href="#path-1"></use>
                </mask>
                <g id="Clip-2"></g>
                <path d="M1595.44798,648.028153 C1548.78967,1023.70757 1206.59941,1290.40989 831.15789,1243.72269 C455.705389,1197.03 -43.6182064,825.681313 3.04559959,450.007396 C49.7039131,74.3224866 582.800548,230.173633 981.683816,38.0059489 C1322.56138,-126.220864 1642.10629,272.354236 1595.44798,648.028153" id="Fill-1" fill="#EEEEEE" mask="url(#mask-2)"></path>
            </g>
            <g id="Group-15" transform="translate(1013.000000, 1184.000000)"></g>
            <path d="M971,818 L1266,818 C1270.41828,818 1274,821.581722 1274,826 L1274,1462 C1274,1466.41828 1270.41828,1470 1266,1470 L971,1470 C966.581722,1470 963,1466.41828 963,1462 L963,826 C963,821.581722 966.581722,818 971,818 Z" id="Rectangle-Copy-2" stroke="#979797"></path>
            <path d="M1011,1184 L1227,1184 C1231.41828,1184 1235,1187.58172 1235,1192 L1235,1422 C1235,1426.41828 1231.41828,1430 1227,1430 L1011,1430 C1006.58172,1430 1003,1426.41828 1003,1422 L1003,1192 C1003,1187.58172 1006.58172,1184 1011,1184 Z" id="Rectangle" fill="#EAE8F0"></path>
            <g id="03_ico-/-20px-/-note-copy-4" transform="translate(1029.000000, 1249.000000)" fill="#65498D">
                <path d="M15.8,11.414 C15.8,10.508 15.076,9.77 14.186,9.77 L5.785,9.77 C4.895,9.77 4.171,10.508 4.171,11.414 L4.171,17.128 C4.171,18.034 4.895,18.771 5.785,18.771 L14.186,18.771 C15.076,18.771 15.8,18.034 15.8,17.128 L15.8,11.414 Z M6.271,8.771 L13.7,8.771 L13.7,4.679 C13.7,2.76 12.034,1.199 9.986,1.199 C7.937,1.199 6.271,2.76 6.271,4.679 L6.271,8.771 Z M16.771,11.414 L16.771,17.128 C16.771,18.585 15.611,19.77 14.186,19.77 L5.785,19.77 C4.36,19.77 3.2,18.585 3.2,17.128 L3.2,11.414 C3.2,10.205 4,9.151 5.145,8.853 L5.326,8.807 L5.304,8.621 C5.302,8.6 5.3,8.579 5.3,8.557 L5.3,4.679 C5.3,2.209 7.402,0.2 9.986,0.2 C12.57,0.2 14.671,2.209 14.671,4.679 L14.671,8.557 C14.671,8.577 14.669,8.597 14.667,8.617 L14.642,8.806 L14.826,8.853 C15.971,9.151 16.771,10.204 16.771,11.414 L16.771,11.414 Z M11.171,14.271 C11.171,14.94 10.639,15.484 9.986,15.484 C9.332,15.484 8.8,14.94 8.8,14.271 C8.8,13.602 9.332,13.058 9.986,13.058 C10.639,13.058 11.171,13.602 11.171,14.271 L11.171,14.271 Z" id="lock"></path>
            </g>
        </g>
    </g>
</svg>