<?xml version="1.0" encoding="UTF-8"?>
<svg width="20px" height="21px" viewBox="0 0 20 21" version="1.1" xmlns="http://www.w3.org/2000/svg" xmlns:xlink="http://www.w3.org/1999/xlink">
    <title>129094B9-7C54-4367-8E44-47813B7BCE81</title>
    <defs>
        <polygon id="path-1" points="0 0 1600 0 1600 1249.02683 0 1249.02683"></polygon>
    </defs>
    <g id="✅-Radar-covid-QR" stroke="none" stroke-width="1" fill="none" fill-rule="evenodd">
        <g id="3.-Radar-covid-subir-código-QR--privado--" transform="translate(-651.000000, -1225.000000)">
            <rect fill="#FAF9F7" x="0" y="0" width="1440" height="1684"></rect>
            <g id="Group-3" opacity="0.300292969" transform="translate(-80.000000, 285.000000)">
                <mask id="mask-2" fill="white">
                    <use xlink:href="#path-1"></use>
                </mask>
                <g id="Clip-2"></g>
                <path d="M1595.44798,648.028153 C1548.78967,1023.70757 1206.59941,1290.40989 831.15789,1243.72269 C455.705389,1197.03 -43.6182064,825.681313 3.04559959,450.007396 C49.7039131,74.3224866 582.800548,230.173633 981.683816,38.0059489 C1322.56138,-126.220864 1642.10629,272.354236 1595.44798,648.028153" id="Fill-1" fill="#EEEEEE" mask="url(#mask-2)"></path>
            </g>
            <g id="Group-15" transform="translate(635.000000, 1102.000000)">
                <path d="M8,0 L631,0 C635.418278,-1.69980292e-15 639,3.581722 639,8 L639,170 C639,174.418278 635.418278,178 631,178 L8,178 C3.581722,178 -3.47095419e-16,174.418278 0,170 L0,8 C-1.42926142e-15,3.581722 3.581722,-7.65539184e-17 8,0 Z" id="Rectangle" fill="#EAE8F0"></path>
                <g id="Group-16" transform="translate(16.000000, 113.715084)" fill="#65498D">
                    <g id="03_ico-/-20px-/-note-copy-3" transform="translate(0.000000, 9.944134)">
                        <path d="M10.0000002,0 C10.9444948,0 11.5015823,0.556081538 11.5000002,1.49539945 L11.5000002,1.49539945 L11.5008652,2.14920454 C14.6456138,2.83236155 17,5.61762896 17,8.94972067 L17,12.9273743 L18.8,15.3139665 C19.1313708,15.753326 19.0418278,16.3766256 18.6,16.7061453 C18.4269038,16.8352421 18.2163702,16.9050279 18,16.9050279 L13,16.9050279 C13,18.552626 11.6568542,19.8882682 10,19.8882682 C8.34314575,19.8882682 7,18.552626 7,16.9050279 L2,16.9050279 C1.44771525,16.9050279 1,16.4598139 1,15.9106145 C1,15.6954531 1.07017787,15.4860956 1.2,15.3139665 L3,12.9273743 L3,8.94972067 C3,5.61727613 5.35488478,2.83177171 8.50013381,2.14898759 L8.50000015,1.49623197 C8.49842049,0.556081538 9.05550805,0 10.0000002,0 Z M12,16.9050279 L8,16.9050279 C8,18.0034267 8.8954305,18.8938547 10,18.8938547 C11.1045695,18.8938547 12,18.0034267 12,16.9050279 Z M10,2.98324022 C6.6862915,2.98324022 4,5.65452451 4,8.94972067 L4,12.9273743 C4,13.1425357 3.92982213,13.3518932 3.8,13.5240223 L2,15.9106145 L18,15.9106145 L16.2,13.5240223 C16.0701779,13.3518932 16,13.1425357 16,12.9273743 L16,8.94972067 C16,5.65452451 13.3137085,2.98324022 10,2.98324022 Z M10.0000002,0.994413408 C9.6089223,0.994413408 9.49934413,1.1037937 9.50000015,1.49539945 L9.50000015,1.49539945 L9.50061334,2.0062676 C9.66556358,1.99470564 9.83209139,1.98882682 10,1.98882682 C10.1682499,1.98882682 10.3351134,1.99472956 10.5003924,2.00633817 L10.5000002,1.49456693 C10.5006587,1.1037937 10.3910805,0.994413408 10.0000002,0.994413408 Z" id="notification"></path>
                    </g>
                </g>
            </g>
        </g>
    </g>
</svg>