<?xml version="1.0" encoding="UTF-8"?>
<svg width="20px" height="21px" viewBox="0 0 20 21" version="1.1" xmlns="http://www.w3.org/2000/svg" xmlns:xlink="http://www.w3.org/1999/xlink">
    <title>15164415-6334-4635-AF21-7F8E9D1EB2DD</title>
    <g id="ðŸ—-Radar-covid-QR" stroke="none" stroke-width="1" fill="none" fill-rule="evenodd">
        <g id="2" transform="translate(-155.000000, -1516.000000)">
            <rect fill="#FAF9F7" x="0" y="0" width="768" height="2431"></rect>
            <g id="Group-2" transform="translate(65.000000, 1205.063830)">
                <g id="Group-13" transform="translate(90.000000, 318.000000)"></g>
                <path d="M8,19 L304,19 C308.418278,19 312,22.581722 312,27 L312,663 C312,667.418278 308.418278,671 304,671 L8,671 C3.581722,671 5.73845019e-14,667.418278 5.68434189e-14,663 L5.68434189e-14,27 C5.63023359e-14,22.581722 3.581722,19 8,19 Z" id="Rectangle-Copy" stroke="#979797"></path>
                <g id="Group-18" transform="translate(90.000000, 297.000000)" fill-rule="nonzero">
                    <g id="03_ico-/-20px-/-note" transform="translate(0.000000, 14.000000)">
                        <g id="136522" transform="translate(2.000000, 0.000000)">
                            <path d="M11.0660714,0 L0.701071429,0 C0.4125,0 0.178571429,0.233928571 0.178571429,0.687857143 L0.178571429,19.6428571 C0.178571429,19.7660714 0.4125,20 0.701071429,20 L15.0132143,20 C15.3017857,20 15.5357143,19.7660714 15.5357143,19.6428571 L15.5357143,4.635 C15.5357143,4.38642857 15.5025,4.30642857 15.4439286,4.2475 L11.2882143,0.0917857143 C11.2292857,0.0332142857 11.1492857,0 11.0660714,0 Z" id="Path" fill="#EFECEC"></path>
                            <polygon id="Path" fill="#CBCDD2" points="11.25 0.0539285714 11.25 4.28571429 15.4817857 4.28571429"></polygon>
                            <path d="M4.82642857,11.9014286 L4.82642857,11.9014286 C4.70214286,11.9014286 4.58285714,11.8610714 4.48107143,11.785 C4.10928571,11.5060714 4.05928571,11.1957143 4.08285714,10.9842857 C4.14785714,10.4028571 4.86678571,9.79428571 6.22035714,9.17428571 C6.7575,7.99714286 7.26857143,6.54678571 7.57321429,5.335 C7.21678571,4.55928571 6.87035714,3.55285714 7.12285714,2.9625 C7.21142857,2.75571429 7.32178571,2.59714286 7.52785714,2.52857143 C7.60928571,2.50142857 7.815,2.46714286 7.89071429,2.46714286 C8.07071429,2.46714286 8.22892857,2.69892857 8.34107143,2.84178571 C8.44642857,2.97607143 8.68535714,3.26071429 8.20785714,5.27107143 C8.68928571,6.26535714 9.37142857,7.27821429 10.025,7.97178571 C10.4932143,7.88714286 10.8960714,7.84392857 11.2242857,7.84392857 C11.7835714,7.84392857 12.1225,7.97428571 12.2607143,8.24285714 C12.375,8.465 12.3282143,8.72464286 12.1214286,9.01428571 C11.9225,9.2925 11.6482143,9.43964286 11.3285714,9.43964286 C10.8942857,9.43964286 10.3885714,9.16535714 9.82464286,8.62357143 C8.81142857,8.83535714 7.62821429,9.21321429 6.67178571,9.63142857 C6.37321429,10.265 6.08714286,10.7753571 5.82071429,11.1496429 C5.45464286,11.6621429 5.13892857,11.9014286 4.82642857,11.9014286 Z M5.77714286,10.0707143 C5.01392857,10.4996429 4.70285714,10.8521429 4.68035714,11.0507143 C4.67678571,11.0835714 4.66714286,11.17 4.83428571,11.2978571 C4.8875,11.2810714 5.19821429,11.1392857 5.77714286,10.0707143 Z M10.6475,8.48428571 C10.9385714,8.70821429 11.0096429,8.82142857 11.2,8.82142857 C11.2835714,8.82142857 11.5217857,8.81785714 11.6321429,8.66392857 C11.6853571,8.58928571 11.7060714,8.54142857 11.7142857,8.51571429 C11.6703571,8.4925 11.6121429,8.44535714 11.2946429,8.44535714 C11.1142857,8.44571429 10.8875,8.45357143 10.6475,8.48428571 Z M7.97964286,6.13357143 C7.72428571,7.01714286 7.38714286,7.97107143 7.02464286,8.835 C7.77107143,8.54535714 8.5825,8.2925 9.34464286,8.11357143 C8.8625,7.55357143 8.38071429,6.85428571 7.97964286,6.13357143 Z M7.76285714,3.11142857 C7.72785714,3.12321429 7.28785714,3.73892857 7.79714286,4.26 C8.13607143,3.50464286 7.77821429,3.10642857 7.76285714,3.11142857 Z" id="Shape" fill="#CC4B4C"></path>
                            <path d="M15.0132143,20 L0.701071429,20 C0.4125,20 0.178571429,19.7660714 0.178571429,19.4775 L0.178571429,13.9285714 L15.5357143,13.9285714 L15.5357143,19.4775 C15.5357143,19.7660714 15.3017857,20 15.0132143,20 Z" id="Path" fill="#CC4B4C"></path>
                            <g id="Group" transform="translate(3.214286, 15.000000)" fill="#FFFFFF">
                                <path d="M0.851785714,3.92857143 L0.265714286,3.92857143 L0.265714286,0.33 L1.30071429,0.33 C1.45357143,0.33 1.605,0.354285714 1.75464286,0.403214286 C1.90428571,0.452142857 2.03857143,0.525357143 2.1575,0.622857143 C2.27642857,0.720357143 2.3725,0.838571429 2.44571429,0.976785714 C2.51892857,1.115 2.55571429,1.27035714 2.55571429,1.44321429 C2.55571429,1.62571429 2.52464286,1.79071429 2.46285714,1.93892857 C2.40107143,2.08714286 2.31464286,2.21178571 2.20392857,2.3125 C2.09321429,2.41321429 1.95964286,2.49142857 1.80357143,2.54678571 C1.6475,2.60214286 1.47464286,2.62964286 1.28607143,2.62964286 L0.851428571,2.62964286 L0.851428571,3.92857143 L0.851785714,3.92857143 Z M0.851785714,0.774285714 L0.851785714,2.2 L1.38892857,2.2 C1.46035714,2.2 1.53107143,2.18785714 1.60142857,2.16321429 C1.67142857,2.13892857 1.73571429,2.09892857 1.79428571,2.04357143 C1.85285714,1.98821429 1.9,1.91107143 1.93571429,1.81178571 C1.97142857,1.7125 1.98928571,1.58964286 1.98928571,1.44321429 C1.98928571,1.38464286 1.98107143,1.31678571 1.965,1.24071429 C1.94857143,1.16428571 1.91535714,1.09107143 1.865,1.02107143 C1.81428571,0.951071429 1.74357143,0.8925 1.6525,0.845357143 C1.56142857,0.798214286 1.44071429,0.774642857 1.29107143,0.774642857 L0.851785714,0.774642857 L0.851785714,0.774285714 Z" id="Shape"></path>
                                <path d="M6.14964286,2.02928571 C6.14964286,2.32535714 6.11785714,2.57857143 6.05428571,2.78857143 C5.99071429,2.99857143 5.91035714,3.17428571 5.8125,3.31607143 C5.71464286,3.45785714 5.605,3.56928571 5.48285714,3.65071429 C5.36071429,3.73214286 5.24285714,3.79285714 5.12892857,3.83392857 C5.015,3.87464286 4.91071429,3.90071429 4.81642857,3.91214286 C4.72214286,3.92285714 4.65214286,3.92857143 4.60642857,3.92857143 L3.24428571,3.92857143 L3.24428571,0.33 L4.32821429,0.33 C4.63107143,0.33 4.89714286,0.378214286 5.12642857,0.473928571 C5.35571429,0.569642857 5.54642857,0.697857143 5.69785714,0.857142857 C5.84928571,1.01642857 5.96214286,1.19821429 6.03714286,1.40142857 C6.11214286,1.605 6.14964286,1.81428571 6.14964286,2.02928571 Z M4.41142857,3.49892857 C4.80857143,3.49892857 5.095,3.37214286 5.27071429,3.11821429 C5.44642857,2.86428571 5.53428571,2.49642857 5.53428571,2.01464286 C5.53428571,1.865 5.51642857,1.71678571 5.48071429,1.57035714 C5.44464286,1.42392857 5.37571429,1.29142857 5.27321429,1.1725 C5.17071429,1.05357143 5.03142857,0.9575 4.85571429,0.884285714 C4.68,0.811071429 4.45214286,0.774285714 4.17214286,0.774285714 L3.83035714,0.774285714 L3.83035714,3.49892857 L4.41142857,3.49892857 L4.41142857,3.49892857 Z" id="Shape"></path>
                                <polygon id="Path" points="7.595 0.774285714 7.595 1.90714286 9.09892857 1.90714286 9.09892857 2.3075 7.595 2.3075 7.595 3.92857143 6.99928571 3.92857143 6.99928571 0.33 9.25 0.33 9.25 0.774285714"></polygon>
                            </g>
                        </g>
                    </g>
                </g>
            </g>
        </g>
    </g>
</svg>