<?xml version="1.0" encoding="UTF-8"?>
<svg width="169px" height="168px" viewBox="0 0 169 168" version="1.1" xmlns="http://www.w3.org/2000/svg" xmlns:xlink="http://www.w3.org/1999/xlink">
    <title>36340A18-1350-41D1-86BC-ED2AD363FC31</title>
    <g id="✅-Radar-covid-QR_Parte-Pública" stroke="none" stroke-width="1" fill="none" fill-rule="evenodd">
        <g id="2-Radar-covid-generar-QR-publico-y-privado--" transform="translate(-1034.000000, -1003.000000)" fill="#999999" fill-rule="nonzero">
            <g id="Group-25-Copy" transform="translate(964.000000, 909.000000)">
                <g id="Group-17-Copy" transform="translate(70.500000, 94.000000)">
                    <path d="M53,0 L0,0 L0,53 L53,53 L53,0 Z M42.4,42.4 L10.6,42.4 L10.6,10.6 L42.4,10.6 L42.4,42.4 Z" id="Shape"></path>
                    <rect id="Rectangle" x="21" y="21" width="11" height="11"></rect>
                    <path d="M115,0 L115,53 L168,53 L168,0 L115,0 Z M157.4,42.4 L125.6,42.4 L125.6,10.6 L157.4,10.6 L157.4,42.4 Z" id="Shape"></path>
                    <rect id="Rectangle" x="136" y="21" width="11" height="11"></rect>
                    <path d="M0,168 L53,168 L53,115 L0,115 L0,168 Z M10.6,125.6 L42.4,125.6 L42.4,157.4 L10.6,157.4 L10.6,125.6 Z" id="Shape"></path>
                    <rect id="Rectangle" x="21" y="136" width="11" height="11"></rect>
                    <rect id="Rectangle" x="83" y="0" width="21" height="11"></rect>
                    <polygon id="Path" points="83 42 93.5 42 93.5 31.3333333 104 31.3333333 104 20.6666667 72.5 20.6666667 72.5 10 62 10 62 20.6666667 62 26 62 31.3333333 83 31.3333333"></polygon>
                    <rect id="Rectangle" x="63" y="42" width="11" height="11"></rect>
                    <polygon id="Path" points="104 53 93.5 53 93.5 63.5 62 63.5 62 74 104 74"></polygon>
                    <polygon id="Path" points="10.5 95.5 21 95.5 21 85 10.5 85 10.5 64 0 64 0 106 10.5 106"></polygon>
                    <rect id="Rectangle" x="21" y="63" width="11" height="11"></rect>
                    <polygon id="Path" points="63.8 106 85 106 85 95.5 74.4 95.5 74.4 85 53.2 85 53.2 64 42.6 64 42.6 85 32 85 32 106 42.6 106 42.6 95.5 47.9 95.5 53.2 95.5 63.8 95.5"></polygon>
                    <rect id="Rectangle" x="94" y="83" width="11" height="21"></rect>
                    <polygon id="Path" points="93.8 115 62 115 62 125.6 83.2 125.6 83.2 157.4 62 157.4 62 168 93.8 168 93.8 157.4 115 157.4 115 146.8 93.8 146.8"></polygon>
                    <rect id="Rectangle" x="63" y="136" width="11" height="11"></rect>
                    <rect id="Rectangle" x="104" y="115" width="11" height="21"></rect>
                    <polygon id="Path" points="158 136 126 136 126 168 136.666667 168 136.666667 146.666667 158 146.666667"></polygon>
                    <rect id="Rectangle" x="147" y="157" width="21" height="11"></rect>
                    <rect id="Rectangle" x="157" y="115" width="11" height="11"></rect>
                    <polygon id="Path" points="125.5 126 136 126 136 94 115 94 115 104.666667 125.5 104.666667"></polygon>
                    <polygon id="Path" points="146.8 74.5 136.2 74.5 136.2 64 125.6 64 125.6 74.5 115 74.5 115 85 157.4 85 157.4 74.5 168 74.5 168 64 146.8 64"></polygon>
                    <rect id="Rectangle" x="147" y="94" width="21" height="11"></rect>
                </g>
            </g>
        </g>
    </g>
</svg>