<?xml version="1.0" encoding="UTF-8"?>
<svg width="20px" height="20px" viewBox="0 0 20 20" version="1.1" xmlns="http://www.w3.org/2000/svg" xmlns:xlink="http://www.w3.org/1999/xlink">
    <title>4AD909D2-92B4-4D09-91C0-68003486F8A9</title>
    <defs>
        <polygon id="path-1" points="0 0 1600 0 1600 1249.02683 0 1249.02683"></polygon>
    </defs>
    <g id="ðŸ—-Radar-covid-QR" stroke="none" stroke-width="1" fill="none" fill-rule="evenodd">
        <g id="2-Radar-covid-generar-QR-publico-y-privado--" transform="translate(-1029.000000, -1330.000000)">
            <rect fill="#FAF9F7" x="0" y="0" width="1440" height="1684"></rect>
            <g id="Group-3" opacity="0.300292969" transform="translate(-80.000000, 285.000000)">
                <mask id="mask-2" fill="white">
                    <use xlink:href="#path-1"></use>
                </mask>
                <g id="Clip-2"></g>
                <path d="M1595.44798,648.028153 C1548.78967,1023.70757 1206.59941,1290.40989 831.15789,1243.72269 C455.705389,1197.03 -43.6182064,825.681313 3.04559959,450.007396 C49.7039131,74.3224866 582.800548,230.173633 981.683816,38.0059489 C1322.56138,-126.220864 1642.10629,272.354236 1595.44798,648.028153" id="Fill-1" fill="#EEEEEE" mask="url(#mask-2)"></path>
            </g>
            <g id="Group-15" transform="translate(1013.000000, 1184.000000)"></g>
            <path d="M971,818 L1266,818 C1270.41828,818 1274,821.581722 1274,826 L1274,1462 C1274,1466.41828 1270.41828,1470 1266,1470 L971,1470 C966.581722,1470 963,1466.41828 963,1462 L963,826 C963,821.581722 966.581722,818 971,818 Z" id="Rectangle-Copy-2" stroke="#979797"></path>
            <path d="M1011,1184 L1227,1184 C1231.41828,1184 1235,1187.58172 1235,1192 L1235,1422 C1235,1426.41828 1231.41828,1430 1227,1430 L1011,1430 C1006.58172,1430 1003,1426.41828 1003,1422 L1003,1192 C1003,1187.58172 1006.58172,1184 1011,1184 Z" id="Rectangle" fill="#EAE8F0"></path>
            <g id="03_ico-/-20px-/-note-copy-5" transform="translate(1029.000000, 1330.000000)" fill="#65498D">
                <path d="M13.762,16.1304 L7.95,12.3584 L8.018,12.2924 L17.382,3.1684 L13.762,16.1304 Z M9.503,14.6814 L7.472,17.0174 L7.472,13.2684 L9.559,14.6164 L9.503,14.6814 Z M7.081,11.8034 L2.57,8.8704 L16.032,3.0854 L7.081,11.8034 Z M18.176,1.0334 L1.309,8.2894 C1.142,8.3654 1.023,8.5334 1.001,8.7274 C0.991,8.9184 1.082,9.1074 1.234,9.2034 L6.491,12.6124 L6.491,18.3374 C6.491,18.5504 6.615,18.7384 6.808,18.8184 C6.858,18.8394 6.92,18.8504 6.987,18.8504 C7.128,18.8504 7.252,18.7934 7.344,18.6854 L10.406,15.1484 L10.46,15.1844 L13.795,17.3564 C13.862,17.4054 13.952,17.4324 14.046,17.4324 C14.11,17.4324 14.162,17.4224 14.227,17.3984 C14.371,17.3444 14.479,17.2234 14.521,17.0664 L18.83,1.6594 C18.884,1.4794 18.827,1.2624 18.692,1.1314 C18.559,1.0034 18.36,0.9654 18.176,1.0334 L18.176,1.0334 Z" id="Fill-1"></path>
            </g>
        </g>
    </g>
</svg>