<?xml version="1.0" encoding="UTF-8"?>
<svg width="20px" height="20px" viewBox="0 0 20 20" version="1.1" xmlns="http://www.w3.org/2000/svg" xmlns:xlink="http://www.w3.org/1999/xlink">
    <title>DC3E337A-057E-4EDE-A2DD-788E274ED06C</title>
    <defs>
        <polygon id="path-1" points="0 0 1600 0 1600 1249.02683 0 1249.02683"></polygon>
        <path d="M4.81166269,7.3488565 C3.72068836,6.63449838 3,5.40141208 3,4 C3,1.790861 4.790861,0 7,0 C9.209139,0 11,1.790861 11,4 C11,5.40141208 10.2793116,6.63449838 9.18833731,7.3488565 C11.9825932,8.26767518 14,10.8982423 14,14 C14,17 0,17 0,14 C0,10.8982423 2.01740683,8.26767518 4.81166269,7.3488565 L4.81166269,7.3488565 Z M7,7 C8.65685425,7 10,5.65685425 10,4 C10,2.34314575 8.65685425,1 7,1 C5.34314575,1 4,2.34314575 4,4 C4,5.65685425 5.34314575,7 7,7 Z M13,14 C13,10.6862915 10.3137085,8 7,8 C3.6862915,8 1,10.6862915 1,14 C1,14.4883124 3.66590659,15.25 7,15.25 C10.3340934,15.25 13,14.4883124 13,14 Z" id="path-3"></path>
    </defs>
    <g id="✅-Radar-covid-QR" stroke="none" stroke-width="1" fill="none" fill-rule="evenodd">
        <g id="2-Radar-covid-generar-QR-publico-y-privado--" transform="translate(-701.000000, -1249.000000)">
            <rect fill="#FAF9F7" x="0" y="0" width="1440" height="1684"></rect>
            <g id="Group-3" opacity="0.300292969" transform="translate(-80.000000, 285.000000)">
                <mask id="mask-2" fill="white">
                    <use xlink:href="#path-1"></use>
                </mask>
                <g id="Clip-2"></g>
                <path d="M1595.44798,648.028153 C1548.78967,1023.70757 1206.59941,1290.40989 831.15789,1243.72269 C455.705389,1197.03 -43.6182064,825.681313 3.04559959,450.007396 C49.7039131,74.3224866 582.800548,230.173633 981.683816,38.0059489 C1322.56138,-126.220864 1642.10629,272.354236 1595.44798,648.028153" id="Fill-1" fill="#EEEEEE" mask="url(#mask-2)"></path>
            </g>
            <g id="Group-14" transform="translate(685.000000, 1184.000000)"></g>
            <path d="M643,818 L939,818 C943.418278,818 947,821.581722 947,826 L947,1462 C947,1466.41828 943.418278,1470 939,1470 L643,1470 C638.581722,1470 635,1466.41828 635,1462 L635,826 C635,821.581722 638.581722,818 643,818 Z" id="Rectangle-Copy" stroke="#979797"></path>
            <path d="M683,1184 L899,1184 C903.418278,1184 907,1187.58172 907,1192 L907,1422 C907,1426.41828 903.418278,1430 899,1430 L683,1430 C678.581722,1430 675,1426.41828 675,1422 L675,1192 C675,1187.58172 678.581722,1184 683,1184 Z" id="Rectangle" fill="#EAE8F0"></path>
            <g id="03_ico-/-20px-/-note-copy-2" transform="translate(704.000000, 1251.000000)">
                <mask id="mask-4" fill="white">
                    <use xlink:href="#path-3"></use>
                </mask>
                <use id="Combined-Shape" fill="#6E767D" fill-rule="nonzero" xlink:href="#path-3"></use>
                <g id="↳-🎨Color" mask="url(#mask-4)" fill="#65498D">
                    <g transform="translate(-3.000000, -2.000000)" id="Rectangle-2">
                        <rect x="0" y="0" width="20" height="20"></rect>
                    </g>
                </g>
            </g>
        </g>
    </g>
</svg>